<?xml version="1.0" encoding="UTF-8" standalone="no"?>
<svg
   xmlns:dc="http://purl.org/dc/elements/1.1/"
   xmlns:cc="http://creativecommons.org/ns#"
   xmlns:rdf="http://www.w3.org/1999/02/22-rdf-syntax-ns#"
   xmlns:svg="http://www.w3.org/2000/svg"
   xmlns="http://www.w3.org/2000/svg"
   xmlns:sodipodi="http://sodipodi.sourceforge.net/DTD/sodipodi-0.dtd"
   xmlns:inkscape="http://www.inkscape.org/namespaces/inkscape"
   inkscape:export-ydpi="455.11111"
   inkscape:export-xdpi="455.11111"
   inkscape:export-filename="C:\Users\hufman\icon.png"
   sodipodi:docname="icon_small.svg"
   inkscape:version="1.0 (4035a4fb49, 2020-05-01)"
   id="svg8"
   version="1.1"
   viewBox="0 0 108 108"
   height="108"
   width="108">
  <defs
     id="defs2">
    <inkscape:path-effect
       hide_knots="false"
       only_selected="false"
       apply_with_radius="true"
       apply_no_radius="true"
       use_knot_distance="true"
       flexible="false"
       chamfer_steps="1"
       radius="0"
       mode="F"
       method="auto"
       unit="px"
       satellites_param="F,0,0,1,0,3.6239223,0,1 @ F,0,0,1,0,1.7234185,0,1 @ F,0,0,1,0,0,0,1 @ F,0,0,1,0,1.3921165,0,1 @ F,0,0,1,0,1.4584077,0,1 @ F,0,0,1,0,0,0,1 @ F,0,0,1,0,3.7123106,0,1 @ F,0,0,1,0,0,0,1 @ F,0,0,1,0,1.8910146,0,1 @ F,0,0,1,0,1.4375,0,1 @ F,0,0,1,0,0,0,1"
       lpeversion="1"
       is_visible="true"
       id="path-effect973"
       effect="fillet_chamfer" />
  </defs>
  <sodipodi:namedview
     inkscape:guide-bbox="true"
     showguides="true"
     inkscape:window-maximized="1"
     inkscape:window-y="845"
     inkscape:window-x="-8"
     inkscape:window-height="1417"
     inkscape:window-width="3278"
     gridtolerance="10"
     units="px"
     showgrid="true"
     inkscape:document-rotation="0"
     inkscape:current-layer="layer2"
     inkscape:document-units="px"
     inkscape:cy="47.905387"
     inkscape:cx="42.659763"
     inkscape:zoom="32"
     inkscape:pageshadow="2"
     inkscape:pageopacity="0.0"
     borderopacity="1.0"
     bordercolor="#666666"
     pagecolor="#ffffff"
     id="base">
    <inkscape:grid
       empspacing="4"
       originy="54"
       originx="54"
       spacingy="4"
       spacingx="4"
       id="grid40"
       type="xygrid" />
    <sodipodi:guide
       id="guide965"
       orientation="0,-1"
       position="85.648309,56.071846" />
    <sodipodi:guide
       id="guide967"
       orientation="0,-1"
       position="25.058097,26.108196" />
    <sodipodi:guide
       id="guide969"
       orientation="1,0"
       position="20.638679,42.106487" />
  </sodipodi:namedview>
  <metadata
     id="metadata5">
    <rdf:RDF>
      <cc:Work
         rdf:about="">
        <dc:format>image/svg+xml</dc:format>
        <dc:type
           rdf:resource="http://purl.org/dc/dcmitype/StillImage" />
        <dc:title></dc:title>
      </cc:Work>
    </rdf:RDF>
  </metadata>
  <g
     id="layer1"
     inkscape:groupmode="layer"
     inkscape:label="Layer 1">
    <path
       sodipodi:nodetypes="sssssssss"
       d="M 8.0000002,0 H 99.771023 c 4.431997,0 8.353547,3.5680001 8.353547,8.0000002 V 99.355453 c 0,4.431997 -3.74477,8.707107 -8.17677,8.707107 H 8.1767769 C 3.7447768,108.06256 0,103.78745 0,99.355453 V 8.0000002 C 0,3.5680001 3.5680001,0 8.0000002,0 Z"
       style="fill:#55c1f1;fill-opacity:1;fill-rule:evenodd;stroke:none;stroke-width:0.499997;stroke-linecap:round"
       id="rect949" />
  </g>
  <g
     inkscape:label="House"
     id="layer2"
     inkscape:groupmode="layer">
    <path
       inkscape:original-d="M 31.742437,50.700668 53.969202,28.343096 65.020067,39.349306 V 36.822508 H 70 v 7.568884 l 6.280757,6.309276 h -6.234733 l 0.06644,15.25023 h -32.18743 v -15.25023 z"
       inkscape:path-effect="#path-effect973"
       sodipodi:nodetypes="cccccccccccc"
       id="path971"
       d="M 34.297408,48.130661 52.754142,29.565307 a 1.7218519,1.7218519 179.85795 0 1 2.436166,-0.006 l 9.829759,9.790039 v -1.134682 a 1.3921165,1.3921165 135 0 1 1.392116,-1.392116 h 2.129409 A 1.4584077,1.4584077 45 0 1 70,38.280916 v 6.110476 l 3.66171,3.678337 a 1.5426177,1.5426177 112.56489 0 1 -1.093264,2.630939 h -2.522422 l 0.0582,13.359233 a 1.882794,1.882794 134.87519 0 1 -1.882777,1.890997 H 39.362534 a 1.4375,1.4375 45 0 1 -1.4375,-1.4375 v -13.81273 h -2.558675 a 1.5073098,1.5073098 67.41595 0 1 -1.068951,-2.570007 z"
       style="fill:#f4f4f4;fill-opacity:1;fill-rule:evenodd;stroke:none;stroke-width:1.88976;stroke-linecap:round" />
    <path
       sodipodi:nodetypes="cccccc"
       id="path975"
       d="m 47.986231,48.922694 c 0,0 5.371362,5.023706 5.371362,5.183862 m 0.08008,-11.080844 v 21.773687 m 6.596457,-13.265361 -6.566426,6.566427"
       style="fill:none;fill-opacity:1;fill-rule:evenodd;stroke:#55c1f1;stroke-width:2;stroke-linecap:round;stroke-linejoin:round;stroke-miterlimit:4;stroke-dasharray:none;stroke-opacity:1" />
    <path
       d="M 53.5625 37.703125 A 2.578125 2.578125 0 0 0 50.984375 40.28125 A 2.578125 2.578125 0 0 0 53.5625 42.859375 A 2.578125 2.578125 0 0 0 56.140625 40.28125 A 2.578125 2.578125 0 0 0 53.5625 37.703125 z M 45.453125 43.875 A 2.578125 2.578125 0 0 0 42.875 46.453125 A 2.578125 2.578125 0 0 0 45.453125 49.03125 A 2.578125 2.578125 0 0 0 48.03125 46.453125 A 2.578125 2.578125 0 0 0 45.453125 43.875 z M 62.25 46.609375 A 2.578125 2.578125 0 0 0 59.671875 49.1875 A 2.578125 2.578125 0 0 0 62.25 51.765625 A 2.578125 2.578125 0 0 0 64.828125 49.1875 A 2.578125 2.578125 0 0 0 62.25 46.609375 z "
       style="fill:none;fill-opacity:1;fill-rule:evenodd;stroke:#55c1f1;stroke-width:2;stroke-linecap:round;stroke-linejoin:round;stroke-miterlimit:4;stroke-dasharray:none;stroke-opacity:1"
       id="path1120" />
  </g>
  <g
     inkscape:label="Car"
     id="layer3"
     inkscape:groupmode="layer">
    <path
       d="m 49.291933,59.305406 c -0.06761,0.0016 -0.138143,0.0067 -0.211085,0.01517 -0.165029,0.01921 -0.425205,0.08611 -0.57473,0.152229 -1.264907,0.561578 -4.377816,2.995495 -5.243655,3.680609 -0.125347,0.09945 -0.360558,0.189598 -0.526664,0.202127 -7.37375,0.562272 -8.413441,2.739413 -8.547845,3.510061 -0.02587,0.148937 -0.127668,0.343694 -0.231984,0.461102 -0.629959,0.712257 -0.266071,2.113589 -0.07663,2.69208 0.04736,0.144972 0.0415,0.377803 0.04319,0.52869 0.0086,0.641545 1.07254,0.620828 1.120206,0.619644 -0.05181,-0.231479 -0.07942,-0.471525 -0.07942,-0.71755 0,-1.995273 1.790571,-3.619971 3.991781,-3.619971 2.201056,0 3.992478,1.624698 3.992478,3.619971 0,0.418347 -0.08272,0.817906 -0.227107,1.191918 4.442336,-0.264747 18.428553,-0.170184 19.019826,-0.110539 0.07476,0.0075 0.228816,0.0058 0.440978,-0.0026 -0.06394,-0.259946 -0.101712,-0.529056 -0.101712,-0.805983 0,-2.014761 1.808014,-3.653445 4.030793,-3.653445 2.202362,0 3.996448,1.612372 4.026616,3.602913 l 0.604688,-0.05048 c -0.07628,-0.42438 -0.01163,-0.977377 0.239648,-1.390256 0.560797,-0.902809 0.03867,-1.556896 -0.29538,-1.851989 -0.119667,-0.104512 -0.229218,-0.296223 -0.231983,-0.446553 -0.03784,-2.193554 -0.957853,-2.949746 -1.431606,-3.194239 -0.144538,-0.07419 -0.142591,-0.127809 0.02158,-0.15349 2.160913,-0.33873 0.69774,-0.318763 0.505766,-0.842618 -0.200491,-0.546406 -1.50605,0.04577 -2.183982,0.205287 -0.25016,0.05902 -1.037166,0.185665 -1.930406,0.322769 -1.236555,-0.703822 -2.660893,-0.578151 -3.177405,0.466788 -0.158966,0.01753 -0.357118,0.0303 -0.49183,0.0303 h -2.56087 c 0.519002,-0.599066 -0.07021,-0.970595 -0.553137,-1.008107 0.438595,0.0059 0.79139,0.203718 0.79139,-0.401097 0,-0.613568 -0.362536,-1.111069 -0.809502,-1.111069 -0.271881,0 -0.511337,0.185482 -0.658333,0.467421 -0.115983,-0.180326 -0.283416,-0.296874 -0.471627,-0.296874 -0.348561,0 -0.631161,0.387926 -0.631161,0.865986 0,0.478201 0.2826,0.312036 0.631161,0.312036 0.1354,0 0.259169,0.0239 0.362254,0.02652 0.09412,0.239247 0.349674,0.162184 0.659724,0.14275 -0.117877,0.02167 -0.263885,0.08247 -0.419381,0.162336 -0.122427,-0.187287 -0.341395,-0.300523 -0.539204,-0.317088 -0.323615,-0.02623 -1.071964,0.707125 -1.428122,1.07759 -0.02339,0.02458 -0.03802,0.05181 -0.04876,0.07896 H 49.463296 V 62.99862 c 0,-0.263842 -0.236371,-0.477525 -0.527363,-0.477525 -0.290992,0 -0.527359,0.213683 -0.527359,0.477525 v 0.768109 h -1.179421 c -0.166261,0 -0.201862,-0.08403 -0.08081,-0.186967 0.764131,-0.65101 3.246532,-2.792002 3.118883,-3.023064 -0.08689,-0.156873 0.01751,-0.40361 0.121911,-0.585537 0.07645,-0.133557 0.06262,-0.324811 -0.07593,-0.408676 -0.205656,-0.124536 -0.548026,-0.268509 -1.021283,-0.257079 z"
       style="fill:#c21a43;fill-opacity:1;stroke-width:0.264584"
       id="path2-0" />
    <path
       style="stroke-width:0.264584"
       d="m 38.955394,73.523198 c 1.384113,0 2.572338,-0.753318 3.099133,-1.831096 0.185602,-0.380417 0.290378,-0.799251 0.290378,-1.242236 0,-1.697191 -1.51729,-3.073261 -3.389511,-3.073261 -1.872222,0 -3.389665,1.37607 -3.389665,3.073261 0,0.228418 0.02955,0.449875 0.08121,0.663816 0.335359,1.37781 1.688231,2.409516 3.308455,2.409516 z"
       id="path8" />
    <path
       style="stroke-width:0.264584"
       d="m 66.110096,67.61567 c -1.893024,0 -3.427968,1.390895 -3.427968,3.107504 0,0.266695 0.04122,0.523786 0.111377,0.770925 0.378344,1.342386 1.71763,2.336369 3.316591,2.336369 1.832384,0 3.324574,-1.305569 3.418373,-2.946387 0.0028,-0.0538 0.0086,-0.106483 0.0086,-0.161464 -6.38e-4,-1.715983 -1.534637,-3.106947 -3.42697,-3.106947 z"
       id="path10" />
  </g>
  <g
     sodipodi:insensitive="true"
     inkscape:label="Mask"
     id="layer4"
     inkscape:groupmode="layer">
    <rect
       y="21"
       x="21"
       height="66"
       width="66"
       id="rect1102"
       style="fill:none;fill-opacity:1;fill-rule:evenodd;stroke:#e7f155;stroke-width:1;stroke-linecap:round;stroke-linejoin:round;stroke-miterlimit:4;stroke-dasharray:none;stroke-opacity:1" />
  </g>
</svg>
