<?xml version="1.0" encoding="UTF-8" standalone="no"?>
<svg
   xmlns:dc="http://purl.org/dc/elements/1.1/"
   xmlns:cc="http://creativecommons.org/ns#"
   xmlns:rdf="http://www.w3.org/1999/02/22-rdf-syntax-ns#"
   xmlns:svg="http://www.w3.org/2000/svg"
   xmlns="http://www.w3.org/2000/svg"
   xmlns:sodipodi="http://sodipodi.sourceforge.net/DTD/sodipodi-0.dtd"
   xmlns:inkscape="http://www.inkscape.org/namespaces/inkscape"
   sodipodi:docname="icon.svg"
   inkscape:version="1.0 (4035a4fb49, 2020-05-01)"
   id="svg8"
   version="1.1"
   viewBox="0 0 108 108"
   height="108"
   width="108">
  <defs
     id="defs2">
    <inkscape:path-effect
       hide_knots="false"
       only_selected="false"
       apply_with_radius="true"
       apply_no_radius="true"
       use_knot_distance="true"
       flexible="false"
       chamfer_steps="1"
       radius="0"
       mode="F"
       method="auto"
       unit="px"
       satellites_param="F,0,0,1,0,3.6239223,0,1 @ F,0,0,1,0,1.7234185,0,1 @ F,0,0,1,0,0,0,1 @ F,0,0,1,0,1.3921165,0,1 @ F,0,0,1,0,1.4584077,0,1 @ F,0,0,1,0,0,0,1 @ F,0,0,1,0,3.7123106,0,1 @ F,0,0,1,0,0,0,1 @ F,0,0,1,0,1.8910146,0,1 @ F,0,0,1,0,1.4375,0,1 @ F,0,0,1,0,0,0,1"
       lpeversion="1"
       is_visible="true"
       id="path-effect973"
       effect="fillet_chamfer" />
  </defs>
  <sodipodi:namedview
     inkscape:guide-bbox="true"
     showguides="true"
     inkscape:window-maximized="1"
     inkscape:window-y="845"
     inkscape:window-x="-8"
     inkscape:window-height="1417"
     inkscape:window-width="3278"
     gridtolerance="10"
     units="px"
     showgrid="true"
     inkscape:document-rotation="0"
     inkscape:current-layer="layer3"
     inkscape:document-units="px"
     inkscape:cy="46.963857"
     inkscape:cx="-7.8196148"
     inkscape:zoom="8"
     inkscape:pageshadow="2"
     inkscape:pageopacity="0.0"
     borderopacity="1.0"
     bordercolor="#666666"
     pagecolor="#ffffff"
     id="base">
    <inkscape:grid
       originy="0"
       originx="0"
       spacingy="2.1166667"
       spacingx="2.1166667"
       id="grid40"
       type="xygrid" />
    <sodipodi:guide
       id="guide965"
       orientation="0,-1"
       position="85.648309,56.071846" />
    <sodipodi:guide
       id="guide967"
       orientation="0,-1"
       position="25.058097,26.108196" />
    <sodipodi:guide
       id="guide969"
       orientation="1,0"
       position="20.638679,42.106487" />
  </sodipodi:namedview>
  <metadata
     id="metadata5">
    <rdf:RDF>
      <cc:Work
         rdf:about="">
        <dc:format>image/svg+xml</dc:format>
        <dc:type
           rdf:resource="http://purl.org/dc/dcmitype/StillImage" />
        <dc:title></dc:title>
      </cc:Work>
    </rdf:RDF>
  </metadata>
  <g
     id="layer1"
     inkscape:groupmode="layer"
     inkscape:label="Layer 1">
    <path
       sodipodi:nodetypes="sssssssss"
       d="M 8.0000002,0 H 99.771023 c 4.431997,0 8.353547,3.5680001 8.353547,8.0000002 V 99.355453 c 0,4.431997 -3.74477,8.707107 -8.17677,8.707107 H 8.1767769 C 3.7447768,108.06256 0,103.78745 0,99.355453 V 8.0000002 C 0,3.5680001 3.5680001,0 8.0000002,0 Z"
       style="fill:#55c1f1;fill-opacity:1;fill-rule:evenodd;stroke:none;stroke-width:0.499997;stroke-linecap:round"
       id="rect949" />
  </g>
  <g
     inkscape:label="House"
     id="layer2"
     inkscape:groupmode="layer">
    <path
       inkscape:original-d="M 10.272098,51.928154 53.943243,8 75.655981,29.625 v -4.964651 h 9.784571 v 14.87134 L 97.780983,51.928154 H 85.530981 l 0.130542,29.96365 H 22.41966 v -29.96365 z"
       inkscape:path-effect="#path-effect973"
       sodipodi:nodetypes="cccccccccccc"
       id="path971"
       d="M 12.827069,49.358147 52.728183,9.222211 a 1.7218519,1.7218519 179.85795 0 1 2.436166,-0.00604 L 75.655981,29.625 v -3.572534 a 1.3921165,1.3921165 135 0 1 1.392117,-1.392117 l 6.934046,0 a 1.4584077,1.4584077 45 0 1 1.458408,1.458408 v 13.412932 l 9.721384,9.765526 a 1.5426177,1.5426177 112.56489 0 1 -1.093264,2.630939 h -8.537691 l 0.122304,28.072653 a 1.882794,1.882794 134.87519 0 1 -1.882777,1.890997 H 23.85716 a 1.4375,1.4375 45 0 1 -1.4375,-1.4375 v -28.52615 l -8.52364,0 a 1.5073098,1.5073098 67.41595 0 1 -1.068951,-2.570007 z"
       style="fill:#f4f4f4;fill-opacity:1;fill-rule:evenodd;stroke:none;stroke-width:1.88976;stroke-linecap:round" />
    <g
       id="g1083">
      <path
         style="fill:none;fill-opacity:1;fill-rule:evenodd;stroke:#55c1f1;stroke-width:2;stroke-linecap:round;stroke-linejoin:round;stroke-miterlimit:4;stroke-dasharray:none;stroke-opacity:1"
         d="m 66.5,75.1875 h -7.3125 l -6.397559,6.615916 m 7.004776,-24.041631 -0.08839,7.159457 h 12.00641 M 35.443727,40.000001 V 46.2713 c 0,0 17.169437,16.815884 17.169437,17.169437 M 43.354485,47.420349 v 6.67332 h -7.071068 m 26.295533,-7.159456 4.684583,5.082329 4.427109,-4.42711 m -23.690641,-13.250559 4.78994,4.640389 v 42.824154 m 0.110485,-42.824155 4.817165,-4.817165 m 9.63433,5.837905 V 57.761785 L 52.856232,72.257474 52.767842,71.506173 H 42.647376 l -5.67895,-5.590563"
         id="path975"
         sodipodi:nodetypes="cccccccccccccccccccccccccc" />
      <g
         id="g1067">
        <path
           d="m 46.138672,30.535156 a 2.0359235,2.0359235 0 0 0 -2.035156,2.035156 2.0359235,2.0359235 0 0 0 2.035156,2.03711 2.0359235,2.0359235 0 0 0 2.035156,-2.03711 2.0359235,2.0359235 0 0 0 -2.035156,-2.035156 z m 13.037109,0 a 2.0359235,2.0359235 0 0 0 -2.035156,2.035156 2.0359235,2.0359235 0 0 0 2.035156,2.03711 2.0359235,2.0359235 0 0 0 2.03711,-2.03711 2.0359235,2.0359235 0 0 0 -2.03711,-2.035156 z m -23.898437,4.685547 a 2.0359235,2.0359235 0 0 0 -1.957032,2.035156 2.0359235,2.0359235 0 0 0 2.035157,2.035157 2.0359235,2.0359235 0 0 0 2.035156,-2.035157 2.0359235,2.0359235 0 0 0 -2.035156,-2.035156 2.0359235,2.0359235 0 0 0 -0.07813,0 z m 32.251953,0.04297 a 2.0359235,2.0359235 0 0 0 -2.037109,2.037109 2.0359235,2.0359235 0 0 0 2.037109,2.035157 2.0359235,2.0359235 0 0 0 2.035156,-2.035157 2.0359235,2.0359235 0 0 0 -2.035156,-2.037109 z m -24.210938,7.55664 a 2.0359235,2.0359235 0 0 0 -2.037109,2.03711 2.0359235,2.0359235 0 0 0 2.037109,2.035156 2.0359235,2.0359235 0 0 0 2.035157,-2.035156 2.0359235,2.0359235 0 0 0 -2.035157,-2.03711 z m 30.66211,0.353516 a 2.0359235,2.0359235 0 0 0 -2.035157,2.03711 2.0359235,2.0359235 0 0 0 2.035157,2.035156 2.0359235,2.0359235 0 0 0 2.037109,-2.035156 2.0359235,2.0359235 0 0 0 -2.037109,-2.03711 z M 61.03125,43.21875 a 2.0359235,2.0359235 0 0 0 -2.035156,2.035156 2.0359235,2.0359235 0 0 0 2.035156,2.03711 2.0359235,2.0359235 0 0 0 2.037109,-2.03711 A 2.0359235,2.0359235 0 0 0 61.03125,43.21875 Z M 34.035156,51.927734 A 2.0359235,2.0359235 0 0 0 32,53.964844 2.0359235,2.0359235 0 0 0 34.035156,56 a 2.0359235,2.0359235 0 0 0 2.03711,-2.035156 2.0359235,2.0359235 0 0 0 -2.03711,-2.03711 z m 25.759766,1.765625 a 2.0359235,2.0359235 0 0 0 -2.035156,2.035157 2.0359235,2.0359235 0 0 0 2.035156,2.037109 2.0359235,2.0359235 0 0 0 2.035156,-2.037109 2.0359235,2.0359235 0 0 0 -2.035156,-2.035157 z m -24.527344,8.66211 a 2.0359235,2.0359235 0 0 0 -2.037109,2.035156 2.0359235,2.0359235 0 0 0 2.037109,2.037109 2.0359235,2.0359235 0 0 0 2.035156,-2.037109 2.0359235,2.0359235 0 0 0 -2.035156,-2.035156 z m 38.757813,0.353515 a 2.0359235,2.0359235 0 0 0 -2.035157,2.035157 2.0359235,2.0359235 0 0 0 2.035157,2.037109 2.0359235,2.0359235 0 0 0 2.035156,-2.037109 2.0359235,2.0359235 0 0 0 -2.035156,-2.035157 z M 68.632812,73.09375 a 2.0359235,2.0359235 0 0 0 -2.035156,2.037109 2.0359235,2.0359235 0 0 0 2.035156,2.035157 2.0359235,2.0359235 0 0 0 2.03711,-2.035157 2.0359235,2.0359235 0 0 0 -2.03711,-2.037109 z"
           style="fill:none;fill-opacity:1;fill-rule:evenodd;stroke:#55c1f1;stroke-width:2;stroke-linecap:round;stroke-linejoin:round;stroke-miterlimit:4;stroke-dasharray:none;stroke-opacity:1"
           id="path978" />
      </g>
    </g>
  </g>
  <g
     inkscape:label="Car"
     id="layer3"
     inkscape:groupmode="layer">
    <path
       d="m 47.876543,74.050537 c -0.116461,0.0028 -0.237961,0.01153 -0.363608,0.02613 -0.284275,0.03309 -0.732445,0.148329 -0.990012,0.262225 -2.178891,0.967356 -7.541093,5.159947 -9.03256,6.340103 -0.215919,0.171314 -0.621087,0.326596 -0.907215,0.348178 -12.701796,0.968553 -14.492736,4.71883 -14.724257,6.046324 -0.04456,0.256554 -0.219917,0.592036 -0.399607,0.79428 -1.085148,1.226912 -0.458327,3.640804 -0.132002,4.637295 0.08158,0.249724 0.07149,0.650792 0.0744,0.910705 0.01481,1.105106 1.847524,1.069419 1.929633,1.06738 -0.08925,-0.398739 -0.136802,-0.812235 -0.136802,-1.236031 0,-3.436996 3.084384,-6.23565 6.87612,-6.23565 3.791472,0 6.87732,2.798654 6.87732,6.23565 0,0.720633 -0.142497,1.4089 -0.391207,2.053163 7.652231,-0.456046 31.744461,-0.293155 32.762969,-0.190412 0.128787,0.01292 0.394151,0.01003 0.759615,-0.0045 -0.110139,-0.447774 -0.175206,-0.911335 -0.175206,-1.388361 0,-3.470565 3.11443,-6.293313 6.943321,-6.293313 3.793721,0 6.884158,2.777423 6.936125,6.206268 l 1.041617,-0.08695 c -0.131392,-0.731023 -0.02003,-1.683599 0.41281,-2.394812 0.966013,-1.555152 0.06662,-2.681861 -0.508812,-3.190179 -0.206134,-0.18003 -0.394844,-0.510265 -0.399606,-0.76922 -0.06519,-3.778549 -1.649969,-5.081141 -2.466041,-5.502297 -0.248978,-0.127801 -0.245623,-0.22016 0.03717,-0.264398 3.722322,-0.583485 1.201904,-0.549091 0.871216,-1.451467 -0.34536,-0.941223 -2.594275,0.07884 -3.762061,0.35362 -0.430917,0.101663 -1.78659,0.319822 -3.325258,0.555993 -2.130052,-1.212383 -4.583572,-0.995906 -5.4733,0.804074 -0.27383,0.03019 -0.61516,0.0522 -0.847211,0.0522 H 64.952817 C 65.846834,80.704601 64.83187,80.064617 64.000001,80 c 0.75551,0.01008 1.363224,0.350919 1.363224,-0.690918 0,-1.056913 -0.624493,-1.913893 -1.394424,-1.913893 -0.468334,0 -0.880813,0.319505 -1.134024,0.805166 -0.199788,-0.310625 -0.488204,-0.511387 -0.81241,-0.511387 -0.600421,0 -1.087218,0.668229 -1.087218,1.491722 0,0.823734 0.486797,0.537503 1.087218,0.537503 0.233236,0 0.446437,0.04117 0.624007,0.04568 0.162125,0.41212 0.602338,0.279373 1.136421,0.245898 -0.203051,0.03732 -0.45456,0.142062 -0.722412,0.279634 -0.21089,-0.322614 -0.588077,-0.517671 -0.928817,-0.546205 -0.557449,-0.04518 -1.846532,1.218071 -2.460039,1.856223 -0.0403,0.04234 -0.06549,0.08925 -0.084,0.136006 h -11.4158 v -1.323076 c 0,-0.454486 -0.407164,-0.822569 -0.908419,-0.822569 -0.501254,0 -0.908412,0.368083 -0.908412,0.822569 v 1.323121 h -2.031635 c -0.286395,0 -0.34772,-0.144753 -0.139201,-0.322062 1.31627,-1.121411 5.592378,-4.809417 5.372493,-5.207438 -0.149676,-0.270225 0.03017,-0.695247 0.21,-1.008629 0.131692,-0.23006 0.107859,-0.559508 -0.130802,-0.703972 -0.354257,-0.214522 -0.944012,-0.462525 -1.75923,-0.442837 z"
       style="fill:#c21a43;fill-opacity:1;stroke-width:0.264584"
       id="path2-0" />
    <path
       style="stroke-width:0.264584"
       d="m 30.071137,98.541669 c 2.384231,0 4.431031,-1.297642 5.338472,-3.154189 0.319713,-0.655295 0.500197,-1.376766 0.500197,-2.139838 0,-2.923529 -2.613637,-5.293906 -5.838669,-5.293906 -3.225032,0 -5.838933,2.370377 -5.838933,5.293906 0,0.393465 0.05091,0.774941 0.139891,1.143469 0.577679,2.373374 2.908095,4.150558 5.699042,4.150558 z"
       id="path8" />
    <path
       style="stroke-width:0.264584"
       d="m 76.846995,88.365543 c -3.260864,0 -5.904912,2.395913 -5.904912,5.35289 0,0.459401 0.071,0.902259 0.191854,1.327972 0.651724,2.312353 2.958737,4.024558 5.713058,4.024558 3.156409,0 5.726809,-2.248933 5.888384,-5.075355 0.0048,-0.09267 0.01481,-0.183425 0.01481,-0.278134 -0.0011,-2.955899 -2.643519,-5.351931 -5.903193,-5.351931 z"
       id="path10" />
  </g>
</svg>
